ffmpeg version 3.4.8-0ubuntu0.2 Copyright (c) 2000-2020 the FFmpeg developers
  built with gcc 7 (Ubuntu 7.5.0-3ubuntu1~18.04)
  configuration: --prefix=/usr --extra-version=0ubuntu0.2 --toolchain=hardened --libdir=/usr/lib/x86_64-linux-gnu --incdir=/usr/include/x86_64-linux-gnu --enable-gpl --disable-stripping --enable-avresample --enable-avisynth --enable-gnutls --enable-ladspa --enable-libass --enable-libbluray --enable-libbs2b --enable-libcaca --enable-libcdio --enable-libflite --enable-libfontconfig --enable-libfreetype --enable-libfribidi --enable-libgme --enable-libgsm --enable-libmp3lame --enable-libmysofa --enable-libopenjpeg --enable-libopenmpt --enable-libopus --enable-libpulse --enable-librubberband --enable-librsvg --enable-libshine --enable-libsnappy --enable-libsoxr --enable-libspeex --enable-libssh --enable-libtheora --enable-libtwolame --enable-libvorbis --enable-libvpx --enable-libwavpack --enable-libwebp --enable-libx265 --enable-libxml2 --enable-libxvid --enable-libzmq --enable-libzvbi --enable-omx --enable-openal --enable-opengl --enable-sdl2 --enable-libdc1394 --enable-libdrm --enable-libiec61883 --enable-chromaprint --enable-frei0r --enable-libopencv --enable-libx264 --enable-shared
  libavutil      55. 78.100 / 55. 78.100
  libavcodec     57.107.100 / 57.107.100
  libavformat    57. 83.100 / 57. 83.100
  libavdevice    57. 10.100 / 57. 10.100
  libavfilter     6.107.100 /  6.107.100
  libavresample   3.  7.  0 /  3.  7.  0
  libswscale      4.  8.100 /  4.  8.100
  libswresample   2.  9.100 /  2.  9.100
  libpostproc    54.  7.100 / 54.  7.100
[theora @ 0x5619546fe500] 7 bits left in packet 82
Input #0, matroska,webm, from '../.././Samples/theora.mkv':
  Metadata:
    encoder         : libebml v0.7.7 + libmatroska v0.8.0
    creation_time   : 2007-03-23T00:51:49.000000Z
  Duration: 00:00:06.38, start: 0.000000, bitrate: 12695 kb/s
    Stream #0:0: Video: theora, yuv420p, 1280x720 [SAR 1:1 DAR 16:9], 23.98 fps, 23.98 tbr, 1k tbn, 23.98 tbc (default)
[theora @ 0x5619546ffe00] 7 bits left in packet 82
Stream mapping:
  Stream #0:0 -> #0:0 (theora (native) -> h264 (libx264))
Press [q] to stop, [?] for help
[libx264 @ 0x5619546ff900] using SAR=1/1
[libx264 @ 0x5619546ff900] using cpu capabilities: MMX2 SSE2Fast SSSE3 SSE4.2 AVX FMA3 BMI2 AVX2
[libx264 @ 0x5619546ff900] profile High, level 3.1
[libx264 @ 0x5619546ff900] 264 - core 152 r2854 e9a5903 - H.264/MPEG-4 AVC codec - Copyleft 2003-2017 - http://www.videolan.org/x264.html - options: cabac=1 ref=3 deblock=1:0:0 analyse=0x3:0x113 me=hex subme=7 psy=1 psy_rd=1.00:0.00 mixed_ref=1 me_range=16 chroma_me=1 trellis=1 8x8dct=1 cqm=0 deadzone=21,11 fast_pskip=1 chroma_qp_offset=-2 threads=6 lookahead_threads=1 sliced_threads=0 nr=0 decimate=1 interlaced=0 bluray_compat=0 constrained_intra=0 bframes=3 b_pyramid=2 b_adapt=1 b_bias=0 direct=1 weightb=1 open_gop=0 weightp=2 keyint=250 keyint_min=23 scenecut=40 intra_refresh=0 rc_lookahead=40 rc=crf mbtree=1 crf=23.0 qcomp=0.60 qpmin=0 qpmax=69 qpstep=4 ip_ratio=1.40 aq=1:1.00
Output #0, mov, to '/home/aleksandr/Pract/Samples/theora.mkv_tc/output_tc1.mov':
  Metadata:
    encoder         : Lavf57.83.100
    Stream #0:0: Video: h264 (libx264) (avc1 / 0x31637661), yuv420p, 1280x720 [SAR 1:1 DAR 16:9], q=-1--1, 23.98 fps, 24k tbn, 23.98 tbc (default)
    Metadata:
      encoder         : Lavc57.107.100 libx264
    Side data:
      cpb: bitrate max/min/avg: 0/0/0 buffer size: 0 vbv_delay: -1
frame=   63 fps=0.0 q=28.0 size=     256kB time=00:00:00.41 bitrate=5028.3kbits/s speed=0.799x    frame=   89 fps= 84 q=28.0 size=     512kB time=00:00:01.50 bitrate=2793.5kbits/s speed=1.42x    frame=  113 fps= 71 q=28.0 size=    1024kB time=00:00:02.50 bitrate=3352.1kbits/s speed=1.58x    frame=  139 fps= 66 q=28.0 size=    1280kB time=00:00:03.58 bitrate=2923.4kbits/s speed=1.71x    frame=  153 fps= 47 q=-1.0 Lsize=    2296kB time=00:00:06.25 bitrate=3006.3kbits/s speed=1.94x    
video:2293kB audio:0kB subtitle:0kB other streams:0kB global headers:0kB muxing overhead: 0.114377%
[libx264 @ 0x5619546ff900] frame I:1     Avg QP:22.21  size:137403
[libx264 @ 0x5619546ff900] frame P:38    Avg QP:22.97  size: 30506
[libx264 @ 0x5619546ff900] frame B:114   Avg QP:28.25  size:  9220
[libx264 @ 0x5619546ff900] consecutive B-frames:  0.7%  0.0%  0.0% 99.3%
[libx264 @ 0x5619546ff900] mb I  I16..4:  6.3% 64.8% 28.9%
[libx264 @ 0x5619546ff900] mb P  I16..4:  1.1%  5.2%  2.0%  P16..4: 35.2% 15.5% 10.8%  0.0%  0.0%    skip:30.2%
[libx264 @ 0x5619546ff900] mb B  I16..4:  0.0%  0.3%  0.4%  B16..8: 15.6%  4.4%  2.9%  direct: 2.9%  skip:73.6%  L0:36.4% L1:48.6% BI:15.0%
[libx264 @ 0x5619546ff900] 8x8 transform intra:61.0% inter:57.4%
[libx264 @ 0x5619546ff900] coded y,uvDC,uvAC intra: 85.1% 61.1% 16.8% inter: 15.8% 5.2% 0.1%
[libx264 @ 0x5619546ff900] i16 v,h,dc,p: 28% 14%  2% 57%
[libx264 @ 0x5619546ff900] i8 v,h,dc,ddl,ddr,vr,hd,vl,hu: 22% 14% 16%  5%  8% 12%  6% 10%  7%
[libx264 @ 0x5619546ff900] i4 v,h,dc,ddl,ddr,vr,hd,vl,hu: 22% 10% 12%  7% 10% 15%  7% 11%  6%
[libx264 @ 0x5619546ff900] i8c dc,h,v,p: 54% 15% 27%  4%
[libx264 @ 0x5619546ff900] Weighted P-Frames: Y:0.0% UV:0.0%
[libx264 @ 0x5619546ff900] ref P L0: 61.2% 22.0% 12.1%  4.7%
[libx264 @ 0x5619546ff900] ref B L0: 90.7%  6.7%  2.6%
[libx264 @ 0x5619546ff900] ref B L1: 97.2%  2.8%
[libx264 @ 0x5619546ff900] kb/s:2943.16
	Command being timed: "/usr/bin/ffmpeg -i ../.././Samples/theora.mkv -c:v libx264 -f mov /home/aleksandr/Pract/Samples/theora.mkv_tc/output_tc1.mov"
	User time (seconds): 12.03
	System time (seconds): 0.21
	Percent of CPU this job got: 368%
	Elapsed (wall clock) time (h:mm:ss or m:ss): 0:03.32
	Average shared text size (kbytes): 0
	Average unshared data size (kbytes): 0
	Average stack size (kbytes): 0
	Average total size (kbytes): 0
	Maximum resident set size (kbytes): 298940
	Average resident set size (kbytes): 0
	Major (requiring I/O) page faults: 2
	Minor (reclaiming a frame) page faults: 33797
	Voluntary context switches: 1873
	Involuntary context switches: 1241
	Swaps: 0
	File system inputs: 304
	File system outputs: 4608
	Socket messages sent: 0
	Socket messages received: 0
	Signals delivered: 0
	Page size (bytes): 4096
	Exit status: 0
